<?xml version="1.0" encoding="UTF-8"?>
<svg xmlns="http://www.w3.org/2000/svg" version="1.1" width="200" height="200" viewBox="0 0 200 200"><rect x="0" y="0" width="200" height="200" fill="#ffffff"/><g transform="scale(6.897)"><g transform="translate(0,0)"><path fill-rule="evenodd" d="M8 0L8 1L9 1L9 2L8 2L8 5L9 5L9 4L11 4L11 5L10 5L10 10L9 10L9 13L8 13L8 11L7 11L7 10L5 10L5 9L4 9L4 8L0 8L0 9L4 9L4 10L5 10L5 11L4 11L4 12L5 12L5 11L7 11L7 12L6 12L6 13L5 13L5 14L3 14L3 15L5 15L5 16L6 16L6 17L5 17L5 19L4 19L4 17L2 17L2 18L3 18L3 19L2 19L2 20L1 20L1 21L2 21L2 20L3 20L3 19L4 19L4 20L6 20L6 21L8 21L8 22L9 22L9 24L10 24L10 22L11 22L11 21L8 21L8 19L7 19L7 18L9 18L9 19L10 19L10 20L12 20L12 19L11 19L11 18L9 18L9 17L8 17L8 16L6 16L6 15L7 15L7 14L6 14L6 13L8 13L8 14L9 14L9 16L10 16L10 17L11 17L11 16L12 16L12 17L13 17L13 16L12 16L12 14L13 14L13 15L14 15L14 18L13 18L13 21L15 21L15 20L16 20L16 25L15 25L15 26L14 26L14 25L13 25L13 26L12 26L12 24L15 24L15 22L14 22L14 23L11 23L11 25L10 25L10 26L12 26L12 28L11 28L11 27L10 27L10 28L11 28L11 29L12 29L12 28L14 28L14 27L15 27L15 28L17 28L17 26L18 26L18 24L20 24L20 25L19 25L19 26L20 26L20 25L23 25L23 28L22 28L22 26L21 26L21 27L19 27L19 28L18 28L18 29L19 29L19 28L20 28L20 29L21 29L21 28L22 28L22 29L23 29L23 28L24 28L24 29L25 29L25 27L27 27L27 29L28 29L28 27L29 27L29 25L28 25L28 27L27 27L27 24L26 24L26 23L27 23L27 22L26 22L26 21L27 21L27 20L28 20L28 17L27 17L27 18L23 18L23 19L26 19L26 21L25 21L25 20L21 20L21 19L20 19L20 21L19 21L19 23L18 23L18 22L17 22L17 21L18 21L18 19L19 19L19 17L21 17L21 18L22 18L22 17L21 17L21 15L22 15L22 14L23 14L23 16L24 16L24 17L26 17L26 16L25 16L25 15L24 15L24 14L23 14L23 13L22 13L22 12L24 12L24 10L25 10L25 9L27 9L27 11L28 11L28 10L29 10L29 8L28 8L28 9L27 9L27 8L24 8L24 9L22 9L22 8L19 8L19 6L20 6L20 7L21 7L21 2L19 2L19 1L21 1L21 0L18 0L18 1L17 1L17 2L19 2L19 3L14 3L14 5L13 5L13 3L12 3L12 4L11 4L11 2L14 2L14 0L12 0L12 1L11 1L11 0L10 0L10 1L9 1L9 0ZM15 0L15 1L16 1L16 0ZM19 3L19 4L16 4L16 5L14 5L14 6L13 6L13 5L12 5L12 6L11 6L11 8L12 8L12 6L13 6L13 8L14 8L14 9L15 9L15 10L14 10L14 11L11 11L11 13L9 13L9 14L11 14L11 13L12 13L12 12L13 12L13 14L14 14L14 15L15 15L15 17L16 17L16 20L17 20L17 18L18 18L18 17L19 17L19 16L20 16L20 15L19 15L19 14L18 14L18 15L17 15L17 16L16 16L16 14L14 14L14 12L15 12L15 11L16 11L16 10L19 10L19 11L17 11L17 12L16 12L16 13L17 13L17 12L19 12L19 13L20 13L20 14L22 14L22 13L21 13L21 12L22 12L22 11L23 11L23 10L22 10L22 11L20 11L20 10L21 10L21 9L20 9L20 10L19 10L19 8L18 8L18 9L17 9L17 8L16 8L16 6L17 6L17 7L18 7L18 5L19 5L19 4L20 4L20 3ZM8 6L8 7L9 7L9 6ZM14 6L14 7L15 7L15 6ZM6 8L6 9L7 9L7 8ZM8 8L8 9L9 9L9 8ZM11 9L11 10L12 10L12 9ZM0 10L0 11L1 11L1 10ZM2 11L2 12L0 12L0 13L1 13L1 15L0 15L0 17L1 17L1 15L2 15L2 13L3 13L3 11ZM25 11L25 13L27 13L27 12L26 12L26 11ZM28 13L28 14L27 14L27 16L28 16L28 15L29 15L29 13ZM18 15L18 16L19 16L19 15ZM6 17L6 18L7 18L7 17ZM0 18L0 19L1 19L1 18ZM6 19L6 20L7 20L7 19ZM21 21L21 24L24 24L24 21ZM28 21L28 22L29 22L29 21ZM22 22L22 23L23 23L23 22ZM17 23L17 24L18 24L18 23ZM28 23L28 24L29 24L29 23ZM8 25L8 29L9 29L9 25ZM16 25L16 26L15 26L15 27L16 27L16 26L17 26L17 25ZM25 25L25 26L24 26L24 27L25 27L25 26L26 26L26 25ZM13 26L13 27L14 27L14 26ZM0 0L0 7L7 7L7 0ZM1 1L1 6L6 6L6 1ZM2 2L2 5L5 5L5 2ZM22 0L22 7L29 7L29 0ZM23 1L23 6L28 6L28 1ZM24 2L24 5L27 5L27 2ZM0 22L0 29L7 29L7 22ZM1 23L1 28L6 28L6 23ZM2 24L2 27L5 27L5 24Z" fill="#000000"/></g></g></svg>
