<?xml version="1.0" encoding="UTF-8"?>
<svg xmlns="http://www.w3.org/2000/svg" version="1.1" width="200" height="200" viewBox="0 0 200 200"><rect x="0" y="0" width="200" height="200" fill="#ffffff"/><g transform="scale(6.897)"><g transform="translate(0,0)"><path fill-rule="evenodd" d="M9 0L9 1L8 1L8 3L9 3L9 4L8 4L8 8L6 8L6 9L4 9L4 8L3 8L3 9L2 9L2 8L0 8L0 9L2 9L2 12L0 12L0 14L1 14L1 16L0 16L0 17L1 17L1 18L0 18L0 19L1 19L1 18L2 18L2 19L4 19L4 20L2 20L2 21L5 21L5 18L6 18L6 19L7 19L7 20L6 20L6 21L8 21L8 23L9 23L9 19L10 19L10 20L11 20L11 21L10 21L10 22L11 22L11 24L9 24L9 25L8 25L8 26L10 26L10 28L9 28L9 27L8 27L8 29L10 29L10 28L12 28L12 29L14 29L14 28L12 28L12 24L14 24L14 25L13 25L13 27L15 27L15 28L16 28L16 29L22 29L22 28L21 28L21 27L20 27L20 26L21 26L21 25L22 25L22 26L23 26L23 27L25 27L25 29L26 29L26 25L25 25L25 22L26 22L26 24L27 24L27 26L28 26L28 27L27 27L27 29L28 29L28 27L29 27L29 26L28 26L28 25L29 25L29 24L28 24L28 23L27 23L27 22L26 22L26 21L27 21L27 20L28 20L28 22L29 22L29 20L28 20L28 19L29 19L29 17L28 17L28 19L27 19L27 20L26 20L26 18L27 18L27 17L26 17L26 16L25 16L25 20L23 20L23 19L24 19L24 18L23 18L23 17L24 17L24 16L23 16L23 17L22 17L22 18L21 18L21 15L22 15L22 13L23 13L23 14L24 14L24 15L25 15L25 14L24 14L24 11L25 11L25 10L26 10L26 12L27 12L27 13L29 13L29 11L27 11L27 9L28 9L28 10L29 10L29 9L28 9L28 8L26 8L26 9L25 9L25 8L22 8L22 10L23 10L23 12L22 12L22 11L20 11L20 10L21 10L21 9L20 9L20 10L19 10L19 8L20 8L20 7L21 7L21 6L20 6L20 5L21 5L21 2L20 2L20 3L19 3L19 1L21 1L21 0L19 0L19 1L17 1L17 0L16 0L16 1L15 1L15 0L12 0L12 1L11 1L11 2L9 2L9 1L10 1L10 0ZM14 2L14 3L15 3L15 2ZM16 2L16 4L19 4L19 5L20 5L20 4L19 4L19 3L17 3L17 2ZM12 3L12 4L9 4L9 5L10 5L10 6L9 6L9 7L10 7L10 8L8 8L8 9L9 9L9 10L10 10L10 8L11 8L11 9L12 9L12 10L11 10L11 11L9 11L9 12L8 12L8 11L5 11L5 10L4 10L4 11L3 11L3 12L4 12L4 11L5 11L5 14L7 14L7 15L3 15L3 16L1 16L1 17L4 17L4 16L9 16L9 17L6 17L6 18L10 18L10 19L12 19L12 20L13 20L13 21L14 21L14 22L15 22L15 23L14 23L14 24L15 24L15 27L17 27L17 26L16 26L16 25L17 25L17 24L18 24L18 23L17 23L17 24L15 24L15 23L16 23L16 22L17 22L17 21L18 21L18 22L19 22L19 26L18 26L18 28L20 28L20 27L19 27L19 26L20 26L20 22L19 22L19 21L20 21L20 20L21 20L21 18L20 18L20 16L19 16L19 18L18 18L18 17L17 17L17 16L16 16L16 13L17 13L17 12L19 12L19 11L16 11L16 10L17 10L17 9L18 9L18 8L17 8L17 7L18 7L18 5L16 5L16 6L15 6L15 7L16 7L16 8L14 8L14 6L13 6L13 3ZM11 5L11 6L10 6L10 7L11 7L11 6L12 6L12 8L13 8L13 6L12 6L12 5ZM16 6L16 7L17 7L17 6ZM19 6L19 7L20 7L20 6ZM6 9L6 10L7 10L7 9ZM14 9L14 10L15 10L15 9ZM24 9L24 10L25 10L25 9ZM0 10L0 11L1 11L1 10ZM14 11L14 12L15 12L15 13L16 13L16 11ZM6 12L6 13L7 13L7 14L8 14L8 12ZM12 12L12 13L10 13L10 14L9 14L9 15L11 15L11 14L12 14L12 16L10 16L10 18L11 18L11 17L12 17L12 16L13 16L13 17L15 17L15 15L13 15L13 12ZM20 12L20 14L19 14L19 15L20 15L20 14L21 14L21 13L22 13L22 12ZM1 13L1 14L2 14L2 13ZM3 13L3 14L4 14L4 13ZM17 14L17 15L18 15L18 14ZM26 14L26 15L27 15L27 16L29 16L29 14L28 14L28 15L27 15L27 14ZM16 17L16 20L20 20L20 19L18 19L18 18L17 18L17 17ZM13 18L13 20L14 20L14 21L15 21L15 20L14 20L14 18ZM0 20L0 21L1 21L1 20ZM25 20L25 21L26 21L26 20ZM21 21L21 24L24 24L24 21ZM22 22L22 23L23 23L23 22ZM10 25L10 26L11 26L11 25ZM23 25L23 26L24 26L24 25ZM23 28L23 29L24 29L24 28ZM0 0L0 7L7 7L7 0ZM1 1L1 6L6 6L6 1ZM2 2L2 5L5 5L5 2ZM22 0L22 7L29 7L29 0ZM23 1L23 6L28 6L28 1ZM24 2L24 5L27 5L27 2ZM0 22L0 29L7 29L7 22ZM1 23L1 28L6 28L6 23ZM2 24L2 27L5 27L5 24Z" fill="#000000"/></g></g></svg>
