<?xml version="1.0" encoding="UTF-8"?>
<svg xmlns="http://www.w3.org/2000/svg" version="1.1" width="200" height="200" viewBox="0 0 200 200"><rect x="0" y="0" width="200" height="200" fill="#ffffff"/><g transform="scale(6.897)"><g transform="translate(0,0)"><path fill-rule="evenodd" d="M8 0L8 1L9 1L9 2L8 2L8 5L9 5L9 4L11 4L11 5L10 5L10 10L8 10L8 9L9 9L9 8L8 8L8 9L7 9L7 8L6 8L6 9L4 9L4 8L0 8L0 9L2 9L2 10L3 10L3 11L1 11L1 10L0 10L0 11L1 11L1 12L3 12L3 11L4 11L4 10L5 10L5 13L7 13L7 14L6 14L6 15L5 15L5 14L4 14L4 15L3 15L3 14L2 14L2 15L0 15L0 16L2 16L2 17L1 17L1 18L0 18L0 19L1 19L1 18L2 18L2 17L3 17L3 18L4 18L4 19L2 19L2 20L1 20L1 21L8 21L8 22L9 22L9 24L10 24L10 25L8 25L8 29L12 29L12 28L14 28L14 27L15 27L15 28L16 28L16 29L17 29L17 28L16 28L16 27L15 27L15 26L18 26L18 28L20 28L20 29L21 29L21 27L22 27L22 26L21 26L21 25L23 25L23 28L22 28L22 29L23 29L23 28L24 28L24 29L25 29L25 27L24 27L24 26L25 26L25 25L26 25L26 27L27 27L27 29L28 29L28 27L29 27L29 25L28 25L28 27L27 27L27 24L26 24L26 23L25 23L25 20L20 20L20 19L19 19L19 17L21 17L21 18L22 18L22 17L21 17L21 15L22 15L22 14L23 14L23 16L24 16L24 17L25 17L25 18L24 18L24 19L26 19L26 21L27 21L27 23L28 23L28 24L29 24L29 23L28 23L28 22L29 22L29 19L28 19L28 17L29 17L29 16L28 16L28 15L29 15L29 13L28 13L28 12L29 12L29 11L27 11L27 10L26 10L26 11L24 11L24 12L23 12L23 13L22 13L22 12L20 12L20 11L21 11L21 9L22 9L22 10L23 10L23 9L22 9L22 8L21 8L21 6L20 6L20 5L21 5L21 3L20 3L20 2L21 2L21 0L18 0L18 1L17 1L17 2L16 2L16 4L15 4L15 3L14 3L14 5L13 5L13 3L12 3L12 4L11 4L11 2L14 2L14 0L12 0L12 1L11 1L11 0L10 0L10 1L9 1L9 0ZM15 0L15 1L16 1L16 0ZM19 1L19 2L17 2L17 3L19 3L19 2L20 2L20 1ZM16 4L16 5L14 5L14 6L13 6L13 5L12 5L12 6L11 6L11 8L12 8L12 6L13 6L13 8L14 8L14 9L15 9L15 10L14 10L14 11L11 11L11 13L9 13L9 14L7 14L7 15L6 15L6 16L8 16L8 15L10 15L10 17L11 17L11 18L9 18L9 17L8 17L8 18L7 18L7 17L5 17L5 15L4 15L4 17L5 17L5 19L4 19L4 20L8 20L8 19L9 19L9 20L11 20L11 22L10 22L10 24L11 24L11 23L14 23L14 22L15 22L15 23L17 23L17 24L16 24L16 25L17 25L17 24L18 24L18 26L19 26L19 27L21 27L21 26L20 26L20 23L17 23L17 22L20 22L20 21L19 21L19 20L18 20L18 21L17 21L17 22L16 22L16 20L17 20L17 19L15 19L15 21L13 21L13 18L14 18L14 15L15 15L15 17L16 17L16 16L17 16L17 18L18 18L18 17L19 17L19 16L20 16L20 15L19 15L19 11L20 11L20 10L19 10L19 8L18 8L18 9L17 9L17 7L18 7L18 5L19 5L19 4ZM8 6L8 7L9 7L9 6ZM14 6L14 7L15 7L15 8L16 8L16 7L17 7L17 6L16 6L16 7L15 7L15 6ZM19 6L19 7L20 7L20 6ZM20 8L20 9L21 9L21 8ZM24 8L24 10L25 10L25 9L27 9L27 8ZM28 8L28 10L29 10L29 8ZM3 9L3 10L4 10L4 9ZM6 9L6 10L7 10L7 11L6 11L6 12L9 12L9 11L8 11L8 10L7 10L7 9ZM11 9L11 10L12 10L12 9ZM16 10L16 11L15 11L15 12L14 12L14 14L13 14L13 12L12 12L12 13L11 13L11 14L10 14L10 15L11 15L11 16L12 16L12 17L13 17L13 16L12 16L12 14L13 14L13 15L14 15L14 14L16 14L16 13L17 13L17 15L18 15L18 12L17 12L17 11L19 11L19 10ZM26 11L26 12L27 12L27 11ZM24 12L24 14L26 14L26 13L25 13L25 12ZM21 13L21 14L22 14L22 13ZM27 14L27 15L25 15L25 16L26 16L26 17L28 17L28 16L27 16L27 15L28 15L28 14ZM2 15L2 16L3 16L3 15ZM6 18L6 19L7 19L7 18ZM26 18L26 19L27 19L27 18ZM11 19L11 20L12 20L12 19ZM27 20L27 21L28 21L28 20ZM21 21L21 24L24 24L24 21ZM22 22L22 23L23 23L23 22ZM12 24L12 26L11 26L11 27L10 27L10 26L9 26L9 27L10 27L10 28L12 28L12 26L13 26L13 27L14 27L14 26L15 26L15 24ZM13 25L13 26L14 26L14 25ZM0 0L0 7L7 7L7 0ZM1 1L1 6L6 6L6 1ZM2 2L2 5L5 5L5 2ZM22 0L22 7L29 7L29 0ZM23 1L23 6L28 6L28 1ZM24 2L24 5L27 5L27 2ZM0 22L0 29L7 29L7 22ZM1 23L1 28L6 28L6 23ZM2 24L2 27L5 27L5 24Z" fill="#000000"/></g></g></svg>
